<svg xmlns="http://www.w3.org/2000/svg" viewBox="0 0 128 128"><title>icon19.2g</title><g id="calendar"><path d="M55.9,90.761a.68.68,0,0,0,.594,0c5.028-2.425,11.207-6.313,12.89-9.121h0a6.556,6.556,0,0,0,.684-5.594,4.83,4.83,0,0,0-3.186-2.937c-2.36-.76-4.291.879-6.977,3.459-.512.492-1.011.97-1.5,1.4a3.346,3.346,0,0,1-4.42,0c-.517-.456-1.041-.965-1.577-1.488-2.2-2.147-3.809-3.56-5.685-3.56a4.14,4.14,0,0,0-1.235.2,4.779,4.779,0,0,0-3.2,2.738,6.941,6.941,0,0,0,.756,5.845C44.541,84.4,50.579,88.194,55.9,90.761Z"/><path d="M111.77,33.71a9.49,9.49,0,0,0-4.09-6.56,11.709,11.709,0,0,1,1.82,6.35v76.75a11.33,11.33,0,0,1-2.78,7.68h7.69a6.651,6.651,0,0,0,6.79-7.73Z"/><path d="M97.5,25.5H93.07c.67,2.35,2.36,4.06,4.28,4.06a2,2,0,0,1,0,4c-4.09,0-7.53-3.45-8.39-8.06H73.03c.67,2.35,2.37,4.06,4.29,4.06a2,2,0,0,1,0,4c-4.1,0-7.54-3.45-8.4-8.06H52.99c.67,2.35,2.37,4.06,4.29,4.06a2,2,0,0,1,0,4c-4.09,0-7.53-3.45-8.4-8.06H32.81c.67,2.35,2.37,4.06,4.29,4.06a2,2,0,0,1,0,4c-4.1,0-7.54-3.45-8.4-8.06H14.86a7.7,7.7,0,0,0-2.41.38,4.53,4.53,0,0,0,3.86,2.93,2,2,0,0,1,0,4,8.4,8.4,0,0,1-7.27-4.79A7.962,7.962,0,0,0,6.86,33.5V44H105.5V33.5A8.011,8.011,0,0,0,97.5,25.5Z"/><path d="M6.86,110.25a8.011,8.011,0,0,0,8,8H97.5a7.88,7.88,0,0,0,6.74-3.7,8.1,8.1,0,0,0,1.26-4.3V48H6.86Zm55.319-2h-12a2,2,0,0,1,0-4h12a2,2,0,0,1,0,4ZM79.38,54.5h12a2,2,0,0,1,0,4h-12a2,2,0,0,1,0-4Zm0,24.715h12a2,2,0,0,1,0,4h-12a2,2,0,0,1,0-4Zm0,23.715h12a2,2,0,0,1,0,4h-12a2,2,0,0,1,0-4Zm-29.2-48.54h12a2,2,0,0,1,0,4h-12a2,2,0,0,1,0-4ZM38.58,74.362A8.765,8.765,0,0,1,44.31,69.3c4.907-1.522,8.354,1.871,10.9,4.321.972.938,1.613.373,1.931.067,2.6-2.5,6.169-5.928,10.974-4.381a8.816,8.816,0,0,1,5.7,5.337,10.57,10.57,0,0,1-1,9.057h0c-2.918,4.867-12.66,9.741-14.583,10.668a4.656,4.656,0,0,1-4.069,0c-2.778-1.34-12.04-6.071-14.617-10.728A10.878,10.878,0,0,1,38.58,74.362ZM20,55.82H32a2,2,0,0,1,0,4H20a2,2,0,1,1,0-4Zm0,24.715H32a2,2,0,0,1,0,4H20a2,2,0,0,1,0-4Zm0,23.715H32a2,2,0,0,1,0,4H20a2,2,0,0,1,0-4Z"/><path d="M92.935,21.5c.568-2.608,2.36-4.575,4.419-4.575s3.852,1.967,4.42,4.575h.757a12.4,12.4,0,0,1,3.361.478c-.523-5.093-4.149-9.053-8.538-9.053-4.25,0-7.781,3.715-8.476,8.575Z"/><path d="M72.9,21.5c.568-2.608,2.36-4.575,4.419-4.575s3.852,1.967,4.42,4.575H85.8c-.7-4.86-4.227-8.575-8.477-8.575S69.537,16.64,68.842,21.5Z"/><path d="M52.863,21.5c.568-2.608,2.36-4.575,4.419-4.575s3.851,1.967,4.42,4.575h4.057c-.7-4.86-4.227-8.575-8.477-8.575S49.5,16.64,48.806,21.5Z"/><path d="M32.677,21.5c.568-2.608,2.36-4.575,4.42-4.575s3.851,1.967,4.419,4.575h4.057c-.7-4.86-4.226-8.575-8.476-8.575S29.315,16.64,28.62,21.5Z"/><path d="M11.722,21.93c.215-3.174,2.228-5.758,4.589-5.758,2.253,0,4.184,2.355,4.544,5.328h4.023c-.418-5.226-4.1-9.328-8.567-9.328-4.749,0-8.611,4.63-8.611,10.32a12.277,12.277,0,0,0,.081,1.338A11.961,11.961,0,0,1,11.722,21.93Z"/></g></svg>