<svg xmlns="http://www.w3.org/2000/svg" viewBox="0 0 512 512"><title>Time_10_O&amp;apos;clock</title><g id="Time_10_O_clock" data-name="Time 10 O&apos;clock"><g id="Time_10_O_clock-2" data-name="Time 10 O&apos;clock"><path d="M256,73.82c-100.6174,0-182.18,81.5625-182.18,182.1717S155.3827,438.18,256,438.18c100.6082,0,182.18-81.5715,182.18-182.1879C438.18,155.3827,356.6083,73.82,256,73.82Zm12.6035,204.2226c0,.0792-.0261.1494-.0261.2286a11.3582,11.3582,0,0,1-.1494,1.4328c-.044.3609-.071.73-.1494,1.0809a10.6492,10.6492,0,0,1-.3429,1.0989,13.8226,13.8226,0,0,1-.4572,1.3095c-.0351.07-.0441.1494-.0792.22a11.6048,11.6048,0,0,1-.94,1.6524c-.0261.0351-.0522.07-.07.0972a13.2447,13.2447,0,0,1-1.3275,1.6173c-.1314.1314-.2718.2547-.4131.3771a11.232,11.232,0,0,1-1.3176,1.1079c-.1494.0963-.2907.2106-.44.3078a11.9155,11.9155,0,0,1-1.8891,1.0278c-.1412.0621-.2907.1053-.4311.1584a12.9646,12.9646,0,0,1-1.6965.5184c-.2106.0531-.4131.1053-.6236.14a12.8161,12.8161,0,0,1-2.259.2286c-.1585,0-.3079-.0522-.4654-.0522a12.4893,12.4893,0,0,1-2.1536-.2376c-.22-.0441-.43-.14-.6508-.2016a13.458,13.458,0,0,1-1.8891-.6417c-.0621-.0351-.14-.0351-.2115-.0711l-69.8463-32.95a12.5987,12.5987,0,0,1,10.7487-22.79l51.8733,24.4683V149.4238a12.6036,12.6036,0,1,1,25.2072,0Z"/></g></g></svg>