<?xml version="1.0" standalone="no"?>
<!DOCTYPE svg PUBLIC "-//W3C//DTD SVG 20010904//EN"
 "http://www.w3.org/TR/2001/REC-SVG-20010904/DTD/svg10.dtd">
<svg version="1.0" xmlns="http://www.w3.org/2000/svg"
 width="510.000000pt" height="597.000000pt" viewBox="0 0 510.000000 597.000000"
 preserveAspectRatio="xMidYMid meet">
<metadata>
Created by potrace 1.10, written by Peter Selinger 2001-2011
</metadata>
<g transform="translate(0.000000,597.000000) scale(0.100000,-0.100000)"
fill="#000000" stroke="none">
<path d="M3172 5912 c-37 -35 -48 -40 -101 -44 -33 -2 -64 -7 -68 -11 -4 -4
-9 -35 -11 -68 -4 -53 -9 -64 -44 -101 l-39 -41 40 -41 c37 -37 41 -47 41 -91
0 -66 10 -78 62 -81 24 -1 48 -2 54 -3 7 -1 30 -19 53 -41 22 -22 44 -40 47
-40 4 0 26 18 50 40 38 35 49 40 92 40 63 0 82 20 82 83 0 40 6 53 35 86 19
21 35 44 35 52 0 7 -16 29 -35 49 -30 31 -35 43 -38 94 -4 68 -13 76 -82 76
-44 0 -54 4 -91 41 l-41 40 -41 -39z"/>
<path d="M2712 5309 c-39 -38 -45 -41 -104 -42 l-63 -2 -3 -64 c-3 -61 -5 -66
-48 -109 l-44 -46 45 -44 c42 -42 45 -49 45 -96 0 -67 9 -79 56 -76 63 4 71 2
107 -35 19 -19 41 -35 50 -35 9 0 32 16 51 35 38 38 41 39 101 36 55 -3 80 23
73 77 -6 44 3 66 43 104 16 15 29 33 29 40 0 6 -16 28 -35 48 -30 31 -35 43
-38 94 -4 68 -13 76 -82 76 -46 0 -55 4 -90 40 -21 22 -42 40 -46 40 -4 0 -25
-18 -47 -41z"/>
<path d="M3628 5303 c-34 -34 -40 -36 -92 -34 -30 1 -57 -3 -61 -9 -3 -5 -7
-35 -9 -65 -3 -51 -7 -60 -47 -101 l-43 -44 48 -47 c44 -44 47 -51 43 -88 -2
-22 0 -51 5 -63 7 -20 14 -23 51 -22 62 4 65 3 103 -35 19 -19 43 -35 54 -35
11 0 35 16 54 35 38 38 41 39 103 35 37 -1 44 2 51 22 5 12 7 39 5 58 -4 31 1
41 41 84 25 26 46 51 46 54 0 4 -19 25 -41 48 -38 38 -42 48 -45 99 -2 30 -6
60 -9 65 -4 6 -31 9 -61 8 -50 -2 -56 0 -92 35 -21 20 -44 37 -53 37 -8 0 -31
-16 -51 -37z"/>
<path d="M1746 4481 c-3 -5 -3 -16 0 -25 3 -9 1 -23 -6 -31 -6 -8 -10 -34 -9
-57 3 -30 -2 -52 -15 -71 -19 -28 -19 -28 3 -57 26 -36 26 -42 0 -66 -18 -16
-20 -26 -14 -71 6 -46 4 -54 -12 -60 -31 -11 -83 -53 -83 -68 0 -8 -6 -18 -14
-22 -22 -13 -28 -73 -33 -310 l-4 -221 -27 7 c-29 9 -66 0 -77 -19 -5 -8 -12
-5 -22 9 -16 23 -51 28 -58 8 -3 -7 -7 -539 -8 -1182 -3 -1316 1 -1247 -75
-1335 -24 -28 -49 -50 -56 -50 -8 0 -16 -7 -20 -15 -3 -9 -18 -15 -36 -15 -17
0 -41 -5 -52 -11 -24 -13 -127 5 -168 29 -34 21 -100 84 -100 96 0 5 -8 18
-18 29 -15 17 -17 56 -22 421 -3 220 -2 412 3 426 4 14 6 221 5 460 l-3 435
-42 3 -42 3 -3 -58 c-4 -75 -22 -75 -26 1 l-3 59 -45 -7 -44 -6 0 217 c0 173
-3 227 -17 269 -18 57 -62 112 -106 132 -28 12 -29 15 -22 61 6 42 4 52 -14
70 -25 25 -26 34 -6 51 20 17 19 65 -2 96 -12 20 -14 30 -6 43 8 12 8 23 0 36
-5 10 -10 33 -9 51 1 24 -4 34 -18 39 -27 8 -40 -1 -40 -29 0 -13 -7 -36 -15
-52 -10 -20 -11 -32 -3 -41 7 -9 6 -22 -6 -47 -21 -44 -20 -68 3 -98 19 -24
19 -24 -5 -47 -27 -26 -30 -51 -11 -82 10 -18 9 -23 -11 -37 -56 -40 -94 -77
-110 -106 -15 -27 -18 -74 -22 -329 -3 -185 -9 -298 -15 -300 -6 -1 -11 23
-13 54 l-3 56 -85 1 -84 0 3 -917 c4 -885 7 -986 35 -1038 7 -12 12 -29 12
-38 0 -33 95 -212 151 -285 68 -90 215 -240 234 -240 4 0 24 -13 44 -28 38
-30 158 -92 177 -92 7 0 17 -7 24 -15 7 -8 22 -15 34 -15 12 0 27 -5 33 -11
19 -19 126 -31 318 -36 231 -6 336 12 464 79 30 15 59 28 66 28 7 0 31 14 53
30 23 17 45 30 48 30 23 0 215 181 269 255 32 43 37 50 88 135 85 142 127 295
130 475 l2 120 1458 3 1457 2 0 1140 0 1140 -29 0 c-19 0 -35 -8 -44 -21 -10
-14 -17 -17 -22 -9 -11 19 -48 28 -77 19 l-27 -7 -4 221 c-3 122 -8 240 -12
262 -10 52 -56 109 -106 132 -33 14 -39 21 -34 38 18 53 17 75 -4 101 l-21 27
21 34 c19 30 20 36 6 56 -8 13 -18 47 -21 77 -3 30 -8 69 -10 85 -2 26 -7 30
-32 30 -23 0 -29 -4 -27 -20 2 -11 -2 -30 -9 -42 -6 -12 -8 -40 -5 -62 4 -31
1 -44 -14 -57 -24 -22 -24 -46 1 -69 25 -23 25 -36 -1 -59 -18 -15 -20 -24
-15 -69 7 -52 7 -52 -29 -71 -48 -26 -91 -82 -100 -131 -4 -22 -9 -140 -12
-261 l-4 -222 -41 11 c-37 9 -43 8 -58 -10 -16 -20 -17 -20 -28 -2 -14 22 -50
25 -58 6 -2 -7 -6 -330 -7 -718 l-2 -704 -315 -5 c-173 -3 -321 -3 -327 -1
-10 2 -13 159 -15 720 l-3 716 -33 -2 c-18 0 -41 -8 -51 -17 -15 -14 -18 -13
-29 5 -8 13 -21 19 -35 17 -19 -3 -23 -11 -27 -61 -3 -31 -9 -57 -15 -57 -6 0
-11 106 -12 292 -1 161 -4 302 -7 314 -8 31 -85 114 -106 114 -31 0 -41 23
-25 54 13 25 13 32 -1 62 -9 19 -20 37 -25 40 -5 3 0 19 12 35 21 30 21 31 4
69 -11 25 -15 49 -11 65 5 18 1 36 -9 52 -9 13 -15 34 -13 46 3 18 -2 22 -27
22 -27 0 -29 -3 -33 -40 -2 -22 -3 -59 -3 -81 1 -26 -5 -46 -14 -54 -19 -16
-19 -64 0 -80 8 -7 15 -18 15 -25 0 -7 -7 -15 -15 -19 -11 -4 -15 -22 -15 -71
0 -59 -2 -66 -22 -75 -31 -12 -62 -40 -82 -72 -37 -57 -46 -126 -46 -344 0
-116 -3 -214 -7 -217 -3 -4 -13 2 -21 14 -8 12 -23 19 -35 17 -19 -3 -23 -11
-27 -61 -3 -31 -9 -57 -15 -57 -5 0 -12 26 -15 57 -4 48 -8 58 -25 61 -52 6
-50 37 -52 -720 -2 -386 -4 -706 -5 -710 -4 -10 -585 -11 -600 -2 -5 3 -8 314
-8 710 1 388 -2 709 -5 714 -11 17 -43 11 -58 -11 -10 -14 -17 -17 -22 -9 -12
19 -48 28 -77 19 l-28 -8 -1 207 c0 121 -5 231 -12 264 -15 72 -70 142 -118
152 -27 5 -30 9 -24 28 18 56 17 83 -4 107 -20 23 -20 24 -1 49 24 30 25 55 5
72 -10 8 -15 31 -15 66 0 29 -5 56 -10 59 -6 4 -9 19 -8 33 3 23 -1 28 -24 30
-14 2 -29 -1 -32 -7z m2914 -875 c3 -47 4 -91 2 -96 -5 -14 -79 -12 -88 2 -9
14 -9 146 0 175 8 27 34 34 61 18 17 -10 21 -26 25 -99z m-2922 91 c9 -10 16
-123 13 -184 -1 -17 -77 -17 -87 -1 -9 15 -9 147 0 176 8 25 56 31 74 9z m157
-11 c12 -18 15 -44 13 -102 l-3 -79 -52 -3 c-38 -2 -53 1 -54 10 -3 57 4 165
12 180 15 27 65 24 84 -6z m1281 2 c11 -34 9 -167 -3 -179 -6 -6 -28 -9 -49
-7 l-39 3 -3 79 c-3 93 11 126 58 126 21 0 31 -6 36 -22z m150 0 c11 -34 9
-167 -3 -179 -6 -6 -28 -9 -49 -7 l-39 3 -3 82 c-3 101 6 123 53 123 26 0 35
-5 41 -22z m1479 -2 c12 -18 15 -44 13 -102 l-3 -79 -52 -3 c-38 -2 -53 1 -54
10 -3 57 4 165 12 180 15 27 65 24 84 -6z m-3241 -625 c14 -15 16 -36 14 -117
l-3 -99 -47 1 c-26 0 -51 4 -55 8 -4 4 -9 40 -11 80 -5 94 16 146 58 146 15 0
35 -8 44 -19z m166 -9 c3 -12 3 -64 0 -115 l-5 -92 -35 -3 c-56 -4 -62 5 -62
99 0 46 5 97 11 112 10 25 15 28 48 25 29 -2 38 -8 43 -26z m158 7 c14 -22 20
-194 8 -207 -4 -3 -28 -6 -54 -6 l-47 -1 -3 99 c-2 81 0 102 14 117 23 26 66
24 82 -2z m173 -6 c6 -16 11 -66 11 -112 0 -94 -6 -103 -62 -99 l-35 3 -3 104
c-1 58 0 111 2 118 3 7 21 13 41 13 29 0 37 -5 46 -27z m935 10 c9 -12 13 -50
14 -115 l0 -97 -34 -6 c-69 -13 -71 -11 -74 99 -2 81 0 102 14 117 21 24 63
24 80 2z m158 -2 c14 -15 16 -36 14 -117 -3 -110 -5 -112 -74 -99 l-34 6 0 89
c0 106 12 140 50 140 15 0 35 -8 44 -19z m167 -8 c6 -16 11 -66 11 -112 0 -94
-6 -103 -62 -99 l-35 3 -3 104 c-1 58 0 111 2 118 3 7 21 13 41 13 29 0 37 -5
46 -27z m168 13 c8 -9 11 -50 9 -117 l-3 -104 -35 -3 c-58 -4 -63 5 -61 108 1
51 6 101 12 111 12 23 61 26 78 5z m986 -10 c12 -18 15 -46 13 -117 l-3 -94
-47 1 c-26 0 -51 4 -55 8 -4 4 -9 40 -11 80 -5 95 16 146 59 146 19 0 34 -8
44 -24z m160 -96 l0 -115 -35 -3 c-57 -4 -62 5 -62 106 1 113 10 134 60 130
l37 -3 0 -115z m163 99 c14 -22 20 -194 8 -207 -4 -3 -28 -6 -54 -6 l-47 -1
-3 97 c-2 57 2 106 8 118 15 28 71 27 88 -1z m173 -6 c16 -42 14 -194 -3 -204
-17 -11 -75 -11 -82 0 -8 12 -9 208 -1 220 3 6 22 11 41 11 28 0 36 -5 45 -27z
m-4606 -69 c13 -13 15 -34 13 -108 l-3 -91 -35 -3 c-53 -4 -61 6 -61 84 -1 97
-1 101 17 118 20 20 48 20 69 0z m149 -3 c14 -15 16 -35 14 -107 l-3 -89 -35
-3 c-53 -4 -61 6 -61 84 -1 97 -1 101 17 118 21 21 47 20 68 -3z m1315 -494
c20 -23 21 -31 19 -163 l-3 -139 -70 0 -70 0 -3 133 c-2 122 -1 136 18 163 27
37 76 40 109 6z m1439 -17 c22 -33 23 -43 20 -152 -2 -64 -7 -120 -11 -125 -5
-4 -36 -8 -70 -8 l-62 0 -3 144 c-3 166 4 184 67 179 28 -2 41 -11 59 -38z
m1472 13 c19 -24 20 -37 18 -162 l-3 -136 -70 0 -70 0 -3 139 c-2 132 -1 140
19 163 32 33 81 31 109 -4z m-1241 -37 c12 -14 20 -190 9 -201 -9 -9 -74 -13
-87 -5 -10 6 -13 34 -12 106 2 89 4 101 24 116 22 17 43 12 66 -16z m-1944 8
c24 -15 25 -21 25 -114 0 -110 -1 -111 -70 -101 l-45 6 -3 80 c-2 66 1 86 18
113 22 36 39 40 75 16z m511 -5 c16 -17 19 -37 19 -112 l0 -92 -45 -6 c-25 -3
-51 -4 -57 -2 -20 8 -17 182 3 211 19 28 55 28 80 1z m924 1 c26 -26 32 -52
28 -135 l-3 -70 -45 -6 c-69 -10 -70 -9 -70 99 0 75 4 99 17 114 21 23 48 23
73 -2z m1477 -2 c21 -19 23 -30 23 -114 0 -103 -1 -104 -70 -95 l-45 6 0 92
c0 75 3 95 19 112 24 27 44 27 73 -1z m509 1 c16 -17 19 -37 19 -112 l0 -92
-45 -6 c-69 -10 -70 -9 -70 99 0 75 4 99 17 114 22 24 55 23 79 -3z m-4776
-11 c16 -17 20 -37 22 -92 1 -77 0 -108 -6 -114 -3 -2 -23 -6 -46 -9 -30 -4
-45 -2 -51 8 -5 8 -9 55 -9 106 0 84 2 93 22 107 30 21 43 20 68 -6z m166 8
c15 -12 20 -31 25 -98 7 -102 -4 -128 -56 -128 -18 0 -37 5 -41 11 -3 6 -6 54
-5 107 1 78 5 100 18 110 22 16 35 15 59 -2z m164 -4 c20 -16 22 -27 22 -111
0 -51 -3 -95 -6 -98 -3 -3 -25 -8 -50 -10 -41 -5 -46 -3 -51 18 -3 13 -5 62
-3 109 3 79 5 85 28 97 32 16 34 16 60 -5z m163 6 c13 -10 17 -32 18 -110 1
-53 -1 -101 -5 -106 -9 -15 -74 -12 -87 4 -13 16 -16 157 -4 193 5 18 20 27
51 30 5 0 18 -5 27 -11z m-250 -447 c18 -7 26 -20 31 -47 9 -46 11 -243 2
-251 -7 -7 -135 -5 -148 3 -4 3 -8 52 -8 110 0 161 37 217 123 185z m-255 -43
c8 -10 17 -159 13 -215 -1 -17 -87 -17 -97 -1 -11 17 -7 170 5 201 8 21 17 27
40 27 15 0 33 -6 39 -12z m505 -5 c11 -13 16 -42 17 -108 1 -49 2 -96 1 -102
-1 -17 -87 -17 -97 -1 -11 17 -4 188 7 210 12 23 51 23 72 1z m-488 -489 c24
-15 25 -21 25 -113 0 -53 -4 -102 -9 -110 -11 -17 -90 -9 -102 11 -5 7 -9 48
-9 91 0 74 2 80 29 108 34 34 34 34 66 13z m156 3 c24 -18 32 -53 32 -134 0
-84 -11 -103 -60 -103 -44 0 -49 14 -45 133 3 86 5 96 25 105 28 14 29 14 48
-1z m183 -23 c7 -19 10 -194 3 -200 -3 -3 -24 -8 -47 -11 -30 -4 -45 -2 -51 8
-5 8 -9 55 -9 106 0 86 1 93 26 112 21 16 30 18 49 9 13 -6 26 -17 29 -24z
m143 18 c20 -15 22 -27 24 -114 1 -53 -2 -101 -5 -107 -10 -16 -72 -13 -86 4
-8 9 -12 48 -12 107 1 84 3 93 24 110 28 22 28 22 55 0z"/>
</g>
</svg>
